<?xml version="1.0" encoding="UTF-8"?>
<svg viewBox="0 0 480 480" xmlns="http://www.w3.org/2000/svg" xmlns:xlink="http://www.w3.org/1999/xlink">
 <defs>
  <filter id="b">
   <feGaussianBlur stdDeviation="1.1769"/>
  </filter>
  <filter id="o">
   <feGaussianBlur stdDeviation=".3321"/>
  </filter>
  <filter id="n">
   <feGaussianBlur stdDeviation=".7958"/>
  </filter>
  <linearGradient id="a">
   <stop stop-color="#131313" offset="0"/>
   <stop stop-color="#fff" offset="1"/>
  </linearGradient>
  <linearGradient id="i" x1="337.89" x2="292.8" y1="231.2" y2="272.73" gradientUnits="userSpaceOnUse">
   <stop stop-color="#5b5b5b" stop-opacity=".9205" offset="0"/>
   <stop stop-color="#fff" offset="1"/>
  </linearGradient>
  <linearGradient id="h" x1="377.54" x2="262.94" y1="215.39" y2="309.7" gradientTransform="matrix(-.96414 .17875 -.17875 -.96414 586.21 429.13)" gradientUnits="userSpaceOnUse">
   <stop offset="0"/>
   <stop stop-opacity="0" offset="1"/>
  </linearGradient>
  <linearGradient id="c">
   <stop stop-color="#fff" offset="0"/>
   <stop stop-color="#fff" stop-opacity="0" offset="1"/>
  </linearGradient>
  <linearGradient id="m" x1="80.566" x2="419.28" y1="346.47" y2="85.714" gradientUnits="userSpaceOnUse" xlink:href="#a"/>
  <linearGradient id="l" x1="352.05" x2="279.88" y1="73.186" y2="181.46" gradientUnits="userSpaceOnUse" xlink:href="#a"/>
  <linearGradient id="k" x1="366.14" x2="216.58" y1="279.31" y2="423.67" gradientUnits="userSpaceOnUse" xlink:href="#a"/>
  <linearGradient id="j" x1="159.38" x2="46.782" y1="161.79" y2="305.25" gradientUnits="userSpaceOnUse" xlink:href="#a"/>
  <radialGradient id="g" cx="317.59" cy="239.41" r="234.07" gradientUnits="userSpaceOnUse">
   <stop stop-color="#7e3300" stop-opacity="0" offset="0"/>
   <stop stop-color="#7d3200" stop-opacity="0" offset=".3485"/>
   <stop stop-color="#7d3200" stop-opacity=".9961" offset=".3707"/>
   <stop stop-color="#481d00" offset=".4563"/>
   <stop stop-color="#af4600" offset=".528"/>
   <stop stop-color="#522100" offset=".5856"/>
   <stop stop-color="#5a2400" offset=".6343"/>
   <stop stop-color="#e55c00" offset=".6775"/>
   <stop stop-color="#582300" offset=".7161"/>
   <stop stop-color="#8b3800" offset=".7465"/>
   <stop stop-color="#481d00" offset=".7813"/>
   <stop stop-color="#502000" offset=".8027"/>
   <stop stop-color="#28221e" offset="1"/>
  </radialGradient>
  <radialGradient id="f" cx="591.79" cy="52.876" r="234.07" gradientTransform="matrix(-1.1531 1.2879 -.42767 -.38291 1152.6 -751.35)" gradientUnits="userSpaceOnUse" xlink:href="#c"/>
  <radialGradient id="e" cx="591.79" cy="52.876" r="234.07" gradientTransform="matrix(1.1531 -1.2879 .42767 .38291 -677.97 1233.4)" gradientUnits="userSpaceOnUse" xlink:href="#c"/>
  <radialGradient id="d" cx="591.79" cy="52.876" r="234.07" gradientTransform="matrix(1.1531 -1.2879 .42767 .38291 -677.97 1235.4)" gradientUnits="userSpaceOnUse" xlink:href="#c"/>
 </defs>
 <path transform="matrix(-.96414 .17875 -.17875 -.96414 588.99 414.06)" d="m345.44 317.4c-42.267 15.749-90.668-6.536-106.4-48.758-15.86-42.567 6.5844-91.311 49.107-107.15 42.867-15.97 91.953 6.6327 107.91 49.455 16.08 43.167-6.6811 92.596-49.803 108.66-43.467 16.19-93.239-6.7295-109.41-50.152-16.301-43.767 6.7778-93.882 50.5-110.16 44.067-16.411 94.525 6.8262 110.92 50.849 16.521 44.367-6.8745 95.168-51.197 111.67-44.667 16.631-95.811-6.9229-112.42-51.545-16.742-44.967 6.9712-96.454 51.894-113.18 45.267-16.852 97.097 7.0196 113.93 52.242 16.962 45.567-7.068 97.74-52.591 114.68-45.867 17.072-98.383-7.1163-115.44-52.939-17.183-46.167 7.1647-99.026 53.287-116.19 46.467-17.293 99.669 7.2131 116.94 53.636 17.403 46.767-7.2614 100.31-53.984 117.7-47.067 17.513-100.95-7.3098-118.45-54.332-17.624-47.367 7.3581-101.6 54.681-119.2 47.667-17.734 102.24 7.4065 119.96 55.029 17.844 47.967-7.4548 102.88-55.378 120.71-48.267 17.954-103.53-7.5032-121.46-55.726-18.065-48.567 7.5516-104.17 56.074-122.22 48.867-18.175 104.81 7.5999 122.97 56.423 18.285 49.168-7.6483 105.45-56.771 123.72-49.468 18.395-106.1-7.6966-124.48-57.12-18.506-49.768 7.745-106.74 57.468-125.23 50.068-18.616 107.38 7.7934 125.98 57.816 18.726 50.368-7.8417 108.03-58.165 126.73-50.668 18.836-108.67-7.8901-127.49-58.513-18.947-50.968 7.9384-109.31 58.862-128.24 51.268-19.057 109.96 7.9868 128.99 59.21 19.167 51.568-8.0352 110.6-59.558 129.75-51.868 19.277-111.24-8.0835-130.5-59.907-19.388-52.168 8.1319-111.88 60.255-131.25 52.468-19.498 112.53 8.1802 132.01 60.604 19.608 52.768-8.2286 113.17-60.952 132.76-53.068 19.718-113.81-8.277-133.51-61.3-19.829-53.368 8.3253-114.46 61.649-134.27 53.668-19.939 115.1 8.3737 135.02 61.997 20.049 53.968-8.422 115.74-62.345 135.77-54.268 20.159-116.38-8.4704-136.53-62.694-20.27-54.568 8.5188-117.03 63.042-137.28 54.868-20.38 117.67 8.5671 138.03 63.391 20.49 55.168-8.6155 118.31-63.739 138.79-55.468 20.6-118.96-8.6638-139.54-64.087-20.711-55.768 8.7122-119.6 64.436-140.29 56.068-20.821 120.24 8.7606 141.05 64.784 20.931 56.368-8.8089 120.89-65.133 141.8-56.668 21.041-121.53-8.8573-142.55-65.481-21.152-56.968 8.9056-122.17 65.829-143.3 57.268-21.262 122.81 8.954 144.06 66.178 21.372 57.568-9.0024 123.46-66.526 144.81-57.868 21.482-124.1-9.0507-145.56-66.875-21.593-58.168 9.0991-124.74 67.223-146.32 58.469-21.703 125.39 9.1474 147.07 67.571 21.813 58.769-9.1958 126.03-67.92 147.82-59.069 21.923-126.67-9.2442-148.58-68.268-22.034-59.369 9.2925-127.31 68.616-149.33 59.669-22.144 127.96 9.3409 150.08 68.965 22.254 59.969-9.3892 128.6-69.313 150.84-60.269 22.364-129.24-9.4376-151.59-69.662-22.475-60.569 9.486-129.89 70.01-152.34 60.869-22.585 130.53 9.5343 153.1 70.358 22.695 61.169-9.5827 131.17-70.707 153.85-61.469 22.805-131.82-9.631-154.6-71.055-22.916-61.769 9.6794-132.46 71.404-155.36 62.069-23.026 133.1 9.7277 156.11 71.752 23.136 62.369-9.7761 133.74-72.1 156.86-62.669 23.246-134.39-9.8245-157.62-72.449-23.357-62.969 9.8728-135.03 72.797-158.37 63.269-23.467 135.67 9.9212 159.12 73.146 23.577 63.569-9.9695 136.32-73.494 159.87-63.869 23.687-136.96-10.018-160.63-73.842-23.798-64.169 10.066-137.6 74.191-161.38 64.469-23.908 138.24 10.115 162.13 74.539 24.018 64.769-10.163 138.89-74.888 162.89-65.069 24.128-139.53-10.211-163.64-75.236-24.239-65.369 10.26-140.17 75.584-164.39 65.669-24.349 140.82 10.308 165.15 75.933 24.459 65.969-10.356 141.46-76.281 165.9-66.269 24.569-142.1-10.405-166.65-76.629-24.68-66.569 10.453-142.74 76.978-167.41 66.869-24.79 143.39 10.501 168.16 77.326 24.9 67.169-10.55 144.03-77.675 168.91-67.47 25.01-144.67-10.598-169.67-78.023-25.121-67.77 10.647-145.32 78.371-170.42 68.07-25.231 145.96 10.695 171.17 78.72 25.341 68.37-10.743 146.6-79.068 171.93-68.67 25.451-147.25-10.792-172.68-79.417-25.562-68.97 10.84-147.89 79.765-173.43 69.27-25.672 148.53 10.888 174.19 80.113 25.782 69.57-10.937 149.17-80.462 174.94-69.87 25.892-149.82-10.985-175.69-80.81-26.003-70.17 11.033-150.46 81.159-176.45 70.47-26.113 151.1 11.082 177.2 81.507 26.223 70.77-11.13 151.75-81.855 177.95-71.07 26.333-152.39-11.179-178.7-82.204-26.444-71.37 11.227-153.03 82.552-179.46 71.67-26.554 153.67 11.275 180.21 82.9 26.664 71.97-11.324 154.32-83.249 180.96-72.27 26.774-154.96-11.372-181.72-83.597-26.885-72.57 11.42-155.6 83.946-182.47 72.87-26.995 156.25 11.469 183.22 84.294 27.105 73.17-11.517 156.89-84.642 183.98-73.47 27.215-157.53-11.565-184.73-84.991-27.326-73.77 11.614-158.18 85.339-185.48 74.07-27.436 158.82 11.662 186.24 85.688 27.546 74.37-11.71 159.46-86.036 186.99-74.67 27.656-160.1-11.759-187.74-86.384-27.767-74.97 11.807-160.75 86.733-188.5 75.27-27.877 161.39 11.856 189.25 87.081 27.987 75.57-11.904 162.03-87.43 190-75.87 28.097-162.68-11.952-190.76-87.778-28.208-76.17 12.001-163.32 88.126-191.51 76.47-28.318 163.96 12.049 192.26 88.475 28.428 76.771-12.097 164.6-88.823 193.02-77.071 28.538-165.25-12.146-193.77-89.172-28.649-77.371 12.194-165.89 89.52-194.52 77.671-28.759 166.53 12.242 195.27 89.868 28.869 77.971-12.291 167.18-90.217 196.03-78.271 28.979-167.82-12.339-196.78-90.565-29.09-78.571 12.387-168.46 90.913-197.53 78.871-29.2 169.1 12.436 198.29 91.262 29.31 79.171-12.484 169.75-91.61 199.04-79.471 29.42-170.39-12.533-199.79-91.959-29.531-79.771 12.581-171.03 92.307-200.55 80.071-29.641 171.68 12.629 201.3 92.655 29.751 80.371-12.678 172.32-93.004 202.05-80.671 29.861-172.96-12.726-202.81-93.352-29.972-80.971 12.774-173.61 93.701-203.56 81.271-30.082 174.25 12.823 204.31 94.049 30.192 81.571-12.871 174.89-94.397 205.07-81.871 30.302-175.53-12.919-205.82-94.746-30.413-82.171 12.968-176.18 95.094-206.57 82.471-30.523 176.82 13.016 207.33 95.443 30.633 82.771-13.065 177.46-95.791 208.08-83.071 30.743-178.11-13.113-208.83-96.139-30.854-83.371 13.161-178.75 96.488-209.59 83.671-30.964 179.39 13.21 210.34 96.836 31.074 83.971-13.258 180.03-97.184 211.09-84.271 31.184-180.68-13.306-211.84-97.533-31.295-84.571 13.355-181.32 97.881-212.6 84.871-31.405 181.96 13.403 213.35 98.23 31.515 85.171-13.451 182.61-98.578 214.1-85.471 31.625-183.25-13.5-214.86-98.926-31.736-85.771 13.548-183.89 99.275-215.61 86.072-31.846 184.54 13.596 216.36 99.623 31.956 86.372-13.645 185.18-99.972 217.12-86.672 32.066-185.82-13.693-217.87-100.32-32.177-86.972 13.742-186.46 100.67-218.62 87.272-32.287 187.11 13.79 219.38 101.02 32.397 87.572-13.838 187.75-101.37 220.13-87.872 32.507-188.39-13.887-220.88-101.71-32.618-88.172 13.935-189.04 102.06-221.64 88.472-32.728 189.68 13.983 222.39 102.41 32.838 88.772-14.032 190.32-102.76 223.14-89.072 32.948-190.96-14.08-223.9-103.11-33.059-89.372 14.128-191.61 103.46-224.65 89.672-33.169 192.25 14.177 225.4 103.8 33.279 89.972-14.225 192.89-104.15 226.16-90.272 33.389-193.54-14.273-226.91-104.5-33.5-90.572 14.322-194.18 104.85-227.66 90.872-33.61 194.82 14.37 228.41 105.2 33.72 91.172-14.419 195.47-105.55 229.17-91.472 33.83-196.11-14.467-229.92-105.89-33.941-91.772 14.515-196.75 106.24-230.67 92.072-34.051 197.39 14.564 231.43 106.59 34.161 92.372-14.612 198.04-106.94 232.18-92.672 34.271-198.68-14.66-232.93-107.29-34.382-92.972 14.709-199.32 107.64-233.69 93.272-34.492 199.97 14.757 234.44 107.98 34.602 93.572-14.805 200.61-108.33 235.19-93.872 34.712-201.25-14.854-235.95-108.68-34.823-94.172 14.902-201.89 109.03-236.7 94.472-34.933 202.54 14.95 237.45 109.38 35.043 94.772-14.999 203.18-109.73 238.21-95.072 35.153-203.82-15.047-238.96-110.07-35.264-95.372 15.096-204.47 110.42-239.71 95.673-35.374 205.11 15.144 240.47 110.77 35.484 95.973-15.192 205.75-111.12 241.22-96.273 35.594-206.39-15.241-241.97-111.47-35.705-96.573 15.289-207.04 111.82-242.73 96.873-35.815 207.68 15.337 243.48 112.17 35.925 97.173-15.386 208.32-112.51 244.23-97.473 36.035-208.97-15.434-244.98-112.86-36.146-97.773 15.482-209.61 113.21-245.74 98.073-36.256 210.25 15.531 246.49 113.56 36.366 98.373-15.579 210.9-113.91 247.24-98.673 36.476-211.54-15.628-248-114.26-36.587-98.973 15.676-212.18 114.6-248.75 99.273-36.697 212.82 15.724 249.5 114.95 36.807 99.573-15.773 213.47-115.3 250.26-99.873 36.917-214.11-15.821-251.01-115.65-37.028-100.17 15.869-214.75 116-251.76 100.47-37.138 215.4 15.918 252.52 116.35 37.248 100.77-15.966 216.04-116.69 253.27-101.07 37.358-216.68-16.014-254.02-117.04-37.469-101.37 16.063-217.32 117.39-254.78 101.67-37.579 217.97 16.111 255.53 117.74 37.689 101.97-16.159 218.61-118.09 256.28-102.27 37.799-219.25-16.208-257.04-118.44-37.91-102.57 16.256-219.9 118.78-257.79 102.87-38.02 220.54 16.305 258.54 119.13 38.13 103.17-16.353 221.18-119.48 259.3-103.47 38.24-221.83-16.401-260.05-119.83-38.351-103.77 16.45-222.47 120.18-260.8 104.07-38.461 223.11 16.498 261.55 120.53 38.571 104.37-16.546 223.75-120.87 262.31-104.67 38.681-224.4-16.595-263.06-121.22-38.792-104.97 16.643-225.04 121.57-263.81 105.27-38.902 225.68 16.691 264.57 121.92 39.012 105.57-16.74 226.33-122.27 265.32-105.87 39.122-226.97-16.788-266.07-122.62-39.233-106.17 16.836-227.61 122.97-266.83 106.47-39.343 228.25 16.885 267.58 123.31 39.453 106.77-16.933 228.9-123.66 268.33-107.07 39.563-229.54-16.982-269.09-124.01-39.674-107.37 17.03-230.18 124.36-269.84 107.67-39.784 230.83 17.078 270.59 124.71 39.894 107.97-17.127 231.47-125.06 271.35-108.27 40.004-232.11-17.175-272.1-125.4-40.115-108.57 17.223-232.76 125.75-272.85 108.87-40.225 233.4 17.272 273.61 126.1 40.335 109.17-17.32 234.04-126.45 274.36-109.47 40.445-234.68-17.368-275.11-126.8-40.556-109.77 17.417-235.33 127.15-275.87 110.07-40.666 235.97 17.465 276.62 127.49 40.776 110.37-17.514 236.61-127.84 277.37-110.67 40.886-237.26-17.562-278.12-128.19-40.997-110.97 17.61-237.9 128.54-278.88 111.27-41.107 238.54 17.659 279.63 128.89 41.217 111.57-17.707 239.18-129.24 280.38-111.87 41.327-239.83-17.755-281.14-129.58-41.438-112.17 17.804-240.47 129.93-281.89 112.47-41.548 241.11 17.852 282.64 130.28 41.658 112.77-17.9 241.76-130.63 283.4-113.07 41.768-242.4-17.949-284.15-130.98-41.879-113.37 17.997-243.04 131.33-284.9 113.67-41.989 243.68 18.045 285.66 131.68 42.099 113.97-18.094 244.33-132.02 286.41-114.27 42.209-244.97-18.142-287.16-132.37-42.32-114.57 18.191-245.61 132.72-287.92 114.87-42.43 246.26 18.239 288.67 133.07 42.54 115.17-18.287 246.9-133.42 289.42-115.47 42.65-247.54-18.336-290.18-133.77-42.761-115.77 18.384-248.19 134.11-290.93 116.07-42.871 248.83 18.432 291.68 134.46 42.981 116.37-18.481 249.47-134.81 292.44-116.67 43.092-250.11-18.529-293.19-135.16-43.202-116.97 18.577-250.76 135.51-293.94 117.27-43.312 251.4 18.626 294.7 135.86 43.422 117.57-18.674 252.04-136.2 295.45-117.87 43.532-252.69-18.722-296.2-136.55-43.643-118.17 18.771-253.33 136.9-296.95 118.47-43.753 253.97 18.819 297.71 137.25 43.863 118.78-18.868 254.61-137.6 298.46-119.08 43.974-255.26-18.916-299.21-137.95-44.084-119.38 18.964-255.9 138.29-299.97 119.68-44.194 256.54 19.013 300.72 138.64 19.921 53.945 19.171 114.42-2.0582 167.86" fill="url(#g)" stroke="#000"/>
 <path d="m235.53 11.844c-46.209 0.47195-92.54 14.572-131.97 43.438-15.231 11.15-28.654 23.957-40.25 38l329.16 315.78c41.563-38.277 66.152-90.328 71.938-144.44l3.3125-0.75c5.6258-56.105-9.9727-113.31-43.281-158.81-45.012-61.486-116.82-93.955-188.91-93.219z" fill="url(#f)"/>
 <path transform="matrix(.98279 0 0 .98279 .05162 2.3113)" d="m287.8 477.3c96.488-17.889 168.67-91.307 189.63-181.12 7.2888-31.225 8.3814-64.43 2.1623-97.975-0.54546-2.9422-1.1369-5.874-1.7845-8.7701-27.975-125.1-150.22-206.59-277.31-183.02-8.8662 1.6438-17.54 3.755-25.975 6.3062-35.365 10.696-66.73 29.095-92.605 52.97-58.463 53.945-88.786 135.83-73.214 219.82 9.6958 52.298 35.703 97.467 71.794 131.2 26.206 24.491 57.738 42.946 92.191 53.75 36.073 11.312 75.35 14.221 115.11 6.8495zm-9.0939-49.051c-25.198 4.6716-50.299 4.8003-73.758-0.84899-12.621-3.0394-19.274-19.955-10.145-32.145l52.921-70.664c3.8183-0.16908 7.6562-0.59496 11.522-1.3116 22.586-4.1875 41.299-17.187 53.296-34.774l86.996-11.214c20.507-2.6452 27.089 17.142 24.037 25.827-22.743 64.72-75.127 112.2-144.87 125.13zm-159.46-55.358c-6.1551 1.2483-12.782-0.4395-17.878-6.2937-21.608-24.819-37.176-55.48-43.611-90.186-11.152-60.153 7.5002-118.84 45.334-161.19 10.629-11.897 27.857-4.5222 33.009 7.5158l34.63 80.911c-8.247 15.823-11.508 34.395-8.0034 53.299 1.371 7.3948 3.7028 14.372 6.8127 20.839l-33.917 81.316c-2.9996 7.1893-9.3996 12.371-16.375 13.786zm113.59-104.52c-1.7129-0.73837-3.338-1.632-4.8729-2.6799l9.4631-16.69c-1.4801-1.4007-2.5694-3.2541-2.9693-5.4111-0.63239-3.411 0.5563-6.72 2.8721-8.9675l-9.495-16.664c1.5135-1.0461 3.1405-1.9271 4.8628-2.6774l9.8129 16.668c4.877-0.87335 9.5394 1.9907 11.136 6.529l19.366 0.1198c0.20951 1.8778 0.26115 3.7353 0.11128 5.5605l-19.223 0.13907c-0.94862 3.6249-3.886 6.5552-7.8141 7.2835-1.1734 0.21754-2.3366 0.22152-3.4496 0.037l-9.8004 16.753zm175.97-61.006c-2.9153 0.54746-6.148 0.6583-9.6595 0.23703l-85.135-10.219c-13.905-21.827-37.504-36.167-63.669-38.109l-54.654-71.586c-9.1283-11.958-1.0029-29.329 13.908-32.228 93.528-18.184 186.32 38.256 214.76 127.49 3.6413 11.426-2.9136 22.042-15.547 24.414z" fill="#b0b0b0" fill-opacity=".4343"/>
 <path d="m241.41 167.44c-4.8207-0.08932-9.6996 0.30558-14.625 1.2188-39.404 7.3053-65.43 45.19-58.125 84.594s45.159 65.399 84.562 58.094 65.43-45.159 58.125-84.562c-6.3922-34.478-36.193-58.718-69.938-59.344zm-12.656 46.438 9.625 16.375c4.7931-0.85832 9.3685 1.9772 10.938 6.4375l19.031 0.125c0.20591 1.8455 0.27229 3.6438 0.125 5.4375l-18.906 0.15625c-0.93229 3.5626-3.7958 6.4405-7.6562 7.1562-1.1532 0.2138-2.3124 0.21256-3.4062 0.03125l-9.625 16.469c-1.6834-0.72566-3.2727-1.5952-4.7812-2.625l9.2812-16.406c-1.4546-1.3766-2.5132-3.1926-2.9062-5.3125-0.62151-3.3523 0.53658-6.6036 2.8125-8.8125l-9.3125-16.406c1.4874-1.0281 3.0886-1.8877 4.7812-2.625z" fill="#c40000" stroke="url(#h)" stroke-width=".98057"/>
 <path transform="matrix(-.96414 .17875 -.17875 -.96414 586.82 427.03)" d="m342 252a29 29 0 1 1 -58 0 29 29 0 1 1 58 0z" fill="none" stroke="url(#i)"/>
 <path transform="matrix(-.96414 .17875 -.17875 -.96414 586.82 427.03)" d="m396 252a83 83 0 1 1 -166 0 83 83 0 1 1 166 0z" fill="none" filter="url(#o)" stroke="#000" stroke-width="2.0396"/>
 <path d="m282.9 471.39c94.828-17.581 165.76-89.736 186.37-178.01 7.1634-30.688 8.2372-63.321 2.1251-96.289-0.53608-2.8915-1.1173-5.7729-1.7538-8.6192-27.493-122.95-147.64-203.03-272.54-179.88-8.7137 1.6155-17.239 3.6904-25.528 6.1976-34.756 10.512-65.582 28.594-91.012 52.059-57.457 53.017-87.258 133.49-71.954 216.04 9.529 51.398 35.089 95.79 70.559 128.94 25.755 24.07 56.745 42.207 90.605 52.825 35.453 11.118 74.054 13.976 113.13 6.7316z" fill="none" filter="url(#b)" stroke="url(#m)" stroke-width="2"/>
 <path d="m273.96 423.19c-24.764 4.5912-49.434 4.7177-72.489-0.83438-12.404-2.9871-18.942-19.612-9.9708-31.592l52.01-69.448c3.7526-0.16617 7.5245-0.58472 11.323-1.289 22.198-4.1154 40.588-16.891 52.379-34.176l85.499-11.021c20.155-2.5997 26.623 16.847 23.623 25.383-22.352 63.606-73.834 110.27-142.38 122.98z" fill="none" filter="url(#b)" stroke="url(#k)" stroke-width="2"/>
 <path d="m117.24 368.78c-6.0492 1.2268-12.562-0.43194-17.571-6.1854-21.236-24.392-36.537-54.525-42.86-88.634-10.96-59.117 7.3712-116.8 44.554-158.41 10.446-11.692 27.378-4.4444 32.441 7.3865l34.034 79.519c-8.1051 15.551-11.31 33.803-7.8656 52.382 1.3474 7.2676 3.6391 14.124 6.6954 20.481l-33.334 79.917c-2.948 7.0656-9.2379 12.158-16.094 13.549z" fill="none" filter="url(#b)" stroke="url(#j)" stroke-width="2"/>
 <path d="m401.82 206.1c-2.8651 0.53804-6.0422 0.64697-9.4933 0.23295l-83.67-10.043c-13.666-21.452-36.859-35.545-62.573-37.453l-53.714-70.354c-8.9712-11.753-0.98562-28.824 13.668-31.673 91.919-17.871 183.11 37.598 211.06 125.3 3.5786 11.23-2.8635 21.662-15.279 23.994z" fill="none" filter="url(#b)" stroke="url(#l)" stroke-width="2"/>
 <path d="m113.09 113.66c-10.445 1.0247-15.34 12.285-21.625 19.312-33.809 45.378-44.687 106.85-28.25 161.19 7.9503 26.45 21.459 51.659 40.625 71.656 9.6172 7.8342 24.559 0.7429 28.041-10.298 10.678-26.18 22.318-52.377 32.396-78.546-10.627-22.604-10.194-50.287 1.3438-72.562-11.266-26.319-22.485-52.668-33.781-78.969-5.8129-4.7839-10.167-12.965-18.75-11.781zm192.09 180.25c-14.453 18.491-37.161 30.187-60.656 31.375-17.666 24.001-36.164 47.466-53.344 71.781-5.5886 10.462 1.7324 25.265 13.822 26.022 42.013 8.6471 86.835 0.65575 124.33-19.582 18.997-10.393 35.985-24.314 50.008-40.627l-73.188-70.219-0.61257 0.79042-0.35618 0.45958z" fill="url(#d)" filter="url(#n)" opacity=".812"/>
 <path d="m82.125 72.969c-41.563 38.277-66.152 90.328-71.938 144.44l-3.3125 0.75c-5.6258 56.105 9.9727 113.31 43.281 158.81 45.012 61.486 116.82 93.955 188.91 93.219 46.209-0.47196 92.54-14.572 131.97-43.438 15.231-11.15 28.654-23.957 40.25-38l-29.219-28.031c-26.778 31.905-63.867 54.269-108.09 62.469-24.764 4.5912-49.445 4.7084-72.5-0.84375-12.404-2.9871-18.94-19.614-9.9688-31.594l52-69.438c3.7526-0.16617 7.545-0.57697 11.344-1.2812 21.406-3.9686 39.242-16.022 51.062-32.375l-47.25-45.312-9.0938 0.0625c-0.9323 3.5625-3.7958 6.4405-7.6562 7.1562-1.1532 0.2138-2.3124 0.21259-3.4062 0.0312l-9.625 16.469c-1.6834-0.72566-3.2727-1.5951-4.7812-2.625l9.2812-16.406c-1.4546-1.3766-2.5132-3.1926-2.9062-5.3125-0.62151-3.3523 0.53658-6.6036 2.8125-8.8125l-9.3125-16.406c1.4874-1.0281 3.0887-1.8877 4.7812-2.625l9.625 16.375c4.7931-0.85832 9.3685 1.9772 10.938 6.4375l3.5 0.0312-119.31-114.47c0.10835 0.22853 0.21315 0.45534 0.3125 0.6875l34.031 79.531c-8.1051 15.551-11.32 33.796-7.875 52.375 1.3474 7.2676 3.6311 14.112 6.6875 20.469l-33.312 79.906c-2.948 7.0656-9.238 12.172-16.094 13.562-6.0492 1.2268-12.585-0.434-17.594-6.1875-21.236-24.392-36.52-54.516-42.844-88.625-10.96-59.117 7.3796-116.79 44.562-158.41 3.591-4.0193 7.9344-5.8112 12.312-5.9375 2.8856-0.0832 5.7786 0.56244 8.4688 1.75l-40.031-38.406z" fill="url(#e)" opacity=".3376"/>
</svg>
